<?xml version="1.0"?>
<svg xmlns="http://www.w3.org/2000/svg" xmlns:xlink="http://www.w3.org/1999/xlink" xmlns:svgjs="http://svgjs.com/svgjs" version="1.1" width="512" height="512" x="0" y="0" viewBox="0 0 511.995 511.995" style="enable-background:new 0 0 512 512" xml:space="preserve" class=""><g><g xmlns="http://www.w3.org/2000/svg"><circle cx="255.995" cy="255.998" r="59.333" fill="#fafafa" data-original="#000000" style="" class=""/><path d="m255.995 345.331c-25.112 0-47.832-10.419-64.078-27.157l-26.232 20.986v172.834h180.621v-172.833l-26.232-20.986c-16.246 16.737-38.967 27.156-64.079 27.156z" fill="#fafafa" data-original="#000000" style="" class=""/><path d="m437.015 74.98c-48.351-48.352-112.638-74.98-181.017-74.98s-132.666 26.628-181.018 74.98-74.98 112.638-74.98 181.018c0 45.72 12.204 90.598 35.292 129.782 22.404 38.022 54.431 69.806 92.619 91.914l15.031-25.963c-69.666-40.332-112.942-115.333-112.942-195.733 0-124.616 101.382-225.998 225.998-225.998s225.998 101.382 225.998 225.998c0 80.433-43.303 155.449-113.009 195.772l15.021 25.968c38.209-22.103 70.255-53.888 92.673-91.92 23.103-39.193 35.314-84.084 35.314-129.82 0-68.38-26.628-132.666-74.98-181.018z" fill="#fafafa" data-original="#000000" style="" class=""/><path d="m451.745 255.998c0-107.936-87.812-195.748-195.748-195.748s-195.747 87.812-195.747 195.748c0 55.839 23.945 109.164 65.695 146.302l19.938-22.415c-35.356-31.45-55.634-76.605-55.634-123.887 0-91.394 74.354-165.748 165.748-165.748s165.748 74.354 165.748 165.748c0 47.084-20.137 92.113-55.247 123.542l20.009 22.353c41.46-37.113 65.238-90.289 65.238-145.895z" fill="#fafafa" data-original="#000000" style="" class=""/><path d="m378.503 313.96c8.621-18.192 12.992-37.693 12.992-57.962 0-74.714-60.784-135.498-135.498-135.498s-135.497 60.784-135.497 135.498c0 20.268 4.371 39.768 12.99 57.959l27.11-12.846c-6.702-14.145-10.101-29.323-10.101-45.113 0-58.171 47.326-105.498 105.498-105.498s105.498 47.326 105.498 105.498c0 15.791-3.399 30.97-10.102 45.116z" fill="#fafafa" data-original="#000000" style="" class=""/></g><style xmlns="http://www.w3.org/2000/svg" id="stylish-7" class="stylish" type="text/css">/*
    
    Theme Name: Netflix reColor Plus

    Creator: GRiMiNTENT.

    Updated: 2019/03/11
    
    Description:
    Change the colors of Netflix and add more if you like!
    I hope you enjoy this style and thank you for using it!

    Enjoy!

*/
@namespace url(http://www.w3.org/1999/xhtml);</style></g></svg>
