<svg height="512pt" viewBox="0 0 512.00053 512" width="512pt" xmlns="http://www.w3.org/2000/svg"><path d="m267.558594 4.730469 58.425781 86.039062 102.152344-19.527343c7.484375-1.429688 14.054687 5.136718 12.621093 12.621093l-19.523437 102.152344 86.039063 58.425781c6.300781 4.28125 6.300781 13.570313 0 17.851563l-86.039063 58.425781 19.523437 102.148438c1.433594 7.488281-5.136718 14.054687-12.621093 12.625l-102.152344-19.527344-58.425781 86.039062c-4.28125 6.304688-13.570313 6.304688-17.851563 0l-58.425781-86.039062-175.308594 94.683594c-9.429687 5.09375-19.714844-5.1875-14.621094-14.621094l94.683594-175.308594-86.039062-58.425781c-6.304688-4.28125-6.304688-13.570313 0-17.851563l86.039062-58.425781-19.527344-102.152344c-1.429687-7.484375 5.140626-14.050781 12.625-12.621093l102.148438 19.527343 58.425781-86.039062c4.28125-6.304688 13.570313-6.304688 17.851563 0zm0 0" fill="#ff5a96"/><path d="m507.273438 262.296875-86.042969 58.421875 19.53125 102.152344c1.421875 7.488281-5.140625 14.050781-12.628907 12.617187l-102.152343-19.519531-58.421875 86.039062c-4.273438 6.304688-13.566406 6.304688-17.851563 0l-6.171875-9.097656c3.820313-.863281 7.417969-3.121094 9.972656-6.878906l55.226563-81.335938c4.738281-6.984374 13.1875-10.484374 21.480469-8.898437l87.59375 16.75-16.746094-87.605469c-1.589844-8.292968 1.914062-16.730468 8.898438-21.46875l73.78125-50.109375-73.78125-50.097656c-6.984376-4.738281-10.484376-13.1875-8.898438-21.480469l16.75-87.59375-87.597656 16.75c-8.292969 1.578125-16.738282-1.914062-21.476563-8.902344l-56.539062-83.257812c-2.140625-3.164062-5.386719-4.757812-8.671875-4.945312l6.179687-9.105469c4.285157-6.304688 13.578125-6.304688 17.851563 0l58.421875 86.039062 102.152343-19.53125c7.492188-1.421875 14.054688 5.140625 12.632813 12.628907l-19.535156 102.152343 86.042969 58.421875c6.304687 4.277344 6.304687 13.570313 0 17.855469zm0 0" fill="#ff3b82"/><path d="m280.726562 347.023438c0 13.652343-11.070312 24.722656-24.726562 24.722656-13.652344 0-24.722656-11.070313-24.722656-24.722656 0-13.65625 11.070312-24.726563 24.722656-24.726563 13.65625 0 24.726562 11.070313 24.726562 24.726563zm0 0" fill="#fff5f5"/><path d="m280.726562 347.015625c0 13.660156-11.074218 24.726563-24.726562 24.726563-3.378906 0-6.59375-.679688-9.527344-1.90625 8.921875-3.730469 15.195313-12.539063 15.195313-22.820313 0-10.269531-6.273438-19.089844-15.195313-22.816406 2.933594-1.226563 6.148438-1.90625 9.527344-1.90625 13.652344 0 24.726562 11.074219 24.726562 24.722656zm0 0" fill="#efe2dd"/><path d="m264.214844 288.136719h-16.429688c-5.28125 0-9.707031-3.996094-10.246094-9.25l-13.339843-130.003907c-.621094-6.074218 4.144531-11.351562 10.25-11.351562h43.105469c6.105468 0 10.871093 5.277344 10.246093 11.351562l-13.339843 130.003907c-.539063 5.253906-4.964844 9.25-10.246094 9.25zm0 0" fill="#fff5f5"/><path d="m287.800781 148.882812-13.339843 130c-.535157 5.261719-4.964844 9.25-10.25 9.25h-16.421876c-.265624 0-.535156-.011718-.800781-.03125 4.921875-.382812 8.941407-4.222656 9.445313-9.21875l13.339844-130c.621093-6.070312-4.140626-11.355468-10.25-11.355468h18.027343c6.109375.003906 10.871094 5.289062 10.25 11.355468zm0 0" fill="#efe2dd"/></svg>